<svg width="35" height="35" viewBox="0 0 35 35" fill="none" xmlns="http://www.w3.org/2000/svg">
<path d="M16.7344 21.1094L11.4479 15.823C11.375 15.75 11.3206 15.6713 11.2846 15.5867C11.2486 15.5021 11.2301 15.4107 11.2292 15.3125C11.2292 15.1181 11.2962 14.948 11.4304 14.8021C11.5646 14.6563 11.7406 14.5834 11.9583 14.5834H23.0417C23.2604 14.5834 23.4369 14.6563 23.571 14.8021C23.7052 14.948 23.7718 15.1181 23.7708 15.3125C23.7708 15.3612 23.6979 15.5313 23.5521 15.823L18.2656 21.1094C18.1441 21.2309 18.0226 21.316 17.901 21.3646C17.7795 21.4132 17.6458 21.4375 17.5 21.4375C17.3542 21.4375 17.2205 21.4132 17.099 21.3646C16.9774 21.316 16.8559 21.2309 16.7344 21.1094Z" fill="#0119EF"/>
</svg>
